<svg width="20" height="20" viewBox="0 0 20 20" fill="none" xmlns="http://www.w3.org/2000/svg">
<path d="M1 12.5C0.866667 12.5 0.75 12.45 0.65 12.35C0.55 12.25 0.5 12.1333 0.5 12C0.5 11.8667 0.55 11.75 0.65 11.65C0.75 11.55 0.866667 11.5 1 11.5C1.13333 11.5 1.25 11.55 1.35 11.65C1.45 11.75 1.5 11.8667 1.5 12C1.5 12.1333 1.45 12.25 1.35 12.35C1.25 12.45 1.13333 12.5 1 12.5ZM1 8.5C0.866667 8.5 0.75 8.45 0.65 8.35C0.55 8.25 0.5 8.13333 0.5 8C0.5 7.86667 0.55 7.75 0.65 7.65C0.75 7.55 0.866667 7.5 1 7.5C1.13333 7.5 1.25 7.55 1.35 7.65C1.45 7.75 1.5 7.86667 1.5 8C1.5 8.13333 1.45 8.25 1.35 8.35C1.25 8.45 1.13333 8.5 1 8.5ZM4 16.9231C3.73847 16.9231 3.51923 16.8346 3.3423 16.6577C3.16538 16.4808 3.07693 16.2615 3.07693 16C3.07693 15.7385 3.16538 15.5192 3.3423 15.3423C3.51923 15.1654 3.73847 15.0769 4 15.0769C4.26153 15.0769 4.48077 15.1654 4.6577 15.3423C4.83462 15.5192 4.92308 15.7385 4.92308 16C4.92308 16.2615 4.83462 16.4808 4.6577 16.6577C4.48077 16.8346 4.26153 16.9231 4 16.9231ZM4 12.9231C3.73847 12.9231 3.51923 12.8346 3.3423 12.6577C3.16538 12.4808 3.07693 12.2615 3.07693 12C3.07693 11.7385 3.16538 11.5192 3.3423 11.3423C3.51923 11.1654 3.73847 11.0769 4 11.0769C4.26153 11.0769 4.48077 11.1654 4.6577 11.3423C4.83462 11.5192 4.92308 11.7385 4.92308 12C4.92308 12.2615 4.83462 12.4808 4.6577 12.6577C4.48077 12.8346 4.26153 12.9231 4 12.9231ZM4 8.92307C3.73847 8.92307 3.51923 8.83461 3.3423 8.65768C3.16538 8.48076 3.07693 8.26153 3.07693 8C3.07693 7.73847 3.16538 7.51924 3.3423 7.34232C3.51923 7.16539 3.73847 7.07693 4 7.07693C4.26153 7.07693 4.48077 7.16539 4.6577 7.34232C4.83462 7.51924 4.92308 7.73847 4.92308 8C4.92308 8.26153 4.83462 8.48076 4.6577 8.65768C4.48077 8.83461 4.26153 8.92307 4 8.92307ZM4 4.92307C3.73847 4.92307 3.51923 4.83461 3.3423 4.65768C3.16538 4.48076 3.07693 4.26153 3.07693 4C3.07693 3.73847 3.16538 3.51924 3.3423 3.34232C3.51923 3.16539 3.73847 3.07693 4 3.07693C4.26153 3.07693 4.48077 3.16539 4.6577 3.34232C4.83462 3.51924 4.92308 3.73847 4.92308 4C4.92308 4.26153 4.83462 4.48076 4.6577 4.65768C4.48077 4.83461 4.26153 4.92307 4 4.92307ZM8.00227 13.3462C7.62897 13.3462 7.31091 13.2155 7.04808 12.9542C6.78526 12.6929 6.65385 12.3756 6.65385 12.0023C6.65385 11.629 6.78451 11.3109 7.04583 11.0481C7.30714 10.7853 7.62444 10.6538 7.99773 10.6538C8.37103 10.6538 8.68909 10.7845 8.95193 11.0458C9.21474 11.3071 9.34615 11.6244 9.34615 11.9977C9.34615 12.371 9.21549 12.6891 8.95417 12.9519C8.69286 13.2147 8.37556 13.3462 8.00227 13.3462ZM8.00227 9.34615C7.62897 9.34615 7.31091 9.21549 7.04808 8.95417C6.78526 8.69287 6.65385 8.37558 6.65385 8.00227C6.65385 7.62897 6.78451 7.31091 7.04583 7.04807C7.30714 6.78526 7.62444 6.65385 7.99773 6.65385C8.37103 6.65385 8.68909 6.78451 8.95193 7.04583C9.21474 7.30713 9.34615 7.62442 9.34615 7.99773C9.34615 8.37103 9.21549 8.68909 8.95417 8.95193C8.69286 9.21474 8.37556 9.34615 8.00227 9.34615ZM8 16.9231C7.73847 16.9231 7.51923 16.8346 7.3423 16.6577C7.16538 16.4808 7.07692 16.2615 7.07692 16C7.07692 15.7385 7.16538 15.5192 7.3423 15.3423C7.51923 15.1654 7.73847 15.0769 8 15.0769C8.26153 15.0769 8.48077 15.1654 8.6577 15.3423C8.83462 15.5192 8.92308 15.7385 8.92308 16C8.92308 16.2615 8.83462 16.4808 8.6577 16.6577C8.48077 16.8346 8.26153 16.9231 8 16.9231ZM8 4.92307C7.73847 4.92307 7.51923 4.83461 7.3423 4.65768C7.16538 4.48076 7.07692 4.26153 7.07692 4C7.07692 3.73847 7.16538 3.51924 7.3423 3.34232C7.51923 3.16539 7.73847 3.07693 8 3.07693C8.26153 3.07693 8.48077 3.16539 8.6577 3.34232C8.83462 3.51924 8.92308 3.73847 8.92308 4C8.92308 4.26153 8.83462 4.48076 8.6577 4.65768C8.48077 4.83461 8.26153 4.92307 8 4.92307ZM8 19.5C7.86667 19.5 7.75 19.45 7.65 19.35C7.55 19.25 7.5 19.1333 7.5 19C7.5 18.8667 7.55 18.75 7.65 18.65C7.75 18.55 7.86667 18.5 8 18.5C8.13333 18.5 8.25 18.55 8.35 18.65C8.45 18.75 8.5 18.8667 8.5 19C8.5 19.1333 8.45 19.25 8.35 19.35C8.25 19.45 8.13333 19.5 8 19.5ZM8 1.5C7.86667 1.5 7.75 1.45 7.65 1.35C7.55 1.25 7.5 1.13333 7.5 1C7.5 0.866667 7.55 0.75 7.65 0.65C7.75 0.55 7.86667 0.5 8 0.5C8.13333 0.5 8.25 0.55 8.35 0.65C8.45 0.75 8.5 0.866667 8.5 1C8.5 1.13333 8.45 1.25 8.35 1.35C8.25 1.45 8.13333 1.5 8 1.5ZM12.0023 13.3462C11.629 13.3462 11.3109 13.2155 11.0481 12.9542C10.7853 12.6929 10.6538 12.3756 10.6538 12.0023C10.6538 11.629 10.7845 11.3109 11.0458 11.0481C11.3071 10.7853 11.6244 10.6538 11.9977 10.6538C12.371 10.6538 12.6891 10.7845 12.9519 11.0458C13.2147 11.3071 13.3462 11.6244 13.3462 11.9977C13.3462 12.371 13.2155 12.6891 12.9542 12.9519C12.6929 13.2147 12.3756 13.3462 12.0023 13.3462ZM12.0023 9.34615C11.629 9.34615 11.3109 9.21549 11.0481 8.95417C10.7853 8.69287 10.6538 8.37558 10.6538 8.00227C10.6538 7.62897 10.7845 7.31091 11.0458 7.04807C11.3071 6.78526 11.6244 6.65385 11.9977 6.65385C12.371 6.65385 12.6891 6.78451 12.9519 7.04583C13.2147 7.30713 13.3462 7.62442 13.3462 7.99773C13.3462 8.37103 13.2155 8.68909 12.9542 8.95193C12.6929 9.21474 12.3756 9.34615 12.0023 9.34615ZM12 16.9231C11.7385 16.9231 11.5192 16.8346 11.3423 16.6577C11.1654 16.4808 11.0769 16.2615 11.0769 16C11.0769 15.7385 11.1654 15.5192 11.3423 15.3423C11.5192 15.1654 11.7385 15.0769 12 15.0769C12.2615 15.0769 12.4808 15.1654 12.6577 15.3423C12.8346 15.5192 12.9231 15.7385 12.9231 16C12.9231 16.2615 12.8346 16.4808 12.6577 16.6577C12.4808 16.8346 12.2615 16.9231 12 16.9231ZM12 4.92307C11.7385 4.92307 11.5192 4.83461 11.3423 4.65768C11.1654 4.48076 11.0769 4.26153 11.0769 4C11.0769 3.73847 11.1654 3.51924 11.3423 3.34232C11.5192 3.16539 11.7385 3.07693 12 3.07693C12.2615 3.07693 12.4808 3.16539 12.6577 3.34232C12.8346 3.51924 12.9231 3.73847 12.9231 4C12.9231 4.26153 12.8346 4.48076 12.6577 4.65768C12.4808 4.83461 12.2615 4.92307 12 4.92307ZM12 19.5C11.8667 19.5 11.75 19.45 11.65 19.35C11.55 19.25 11.5 19.1333 11.5 19C11.5 18.8667 11.55 18.75 11.65 18.65C11.75 18.55 11.8667 18.5 12 18.5C12.1333 18.5 12.25 18.55 12.35 18.65C12.45 18.75 12.5 18.8667 12.5 19C12.5 19.1333 12.45 19.25 12.35 19.35C12.25 19.45 12.1333 19.5 12 19.5ZM12 1.5C11.8667 1.5 11.75 1.45 11.65 1.35C11.55 1.25 11.5 1.13333 11.5 1C11.5 0.866667 11.55 0.75 11.65 0.65C11.75 0.55 11.8667 0.5 12 0.5C12.1333 0.5 12.25 0.55 12.35 0.65C12.45 0.75 12.5 0.866667 12.5 1C12.5 1.13333 12.45 1.25 12.35 1.35C12.25 1.45 12.1333 1.5 12 1.5ZM16 16.9231C15.7385 16.9231 15.5192 16.8346 15.3423 16.6577C15.1654 16.4808 15.0769 16.2615 15.0769 16C15.0769 15.7385 15.1654 15.5192 15.3423 15.3423C15.5192 15.1654 15.7385 15.0769 16 15.0769C16.2615 15.0769 16.4808 15.1654 16.6577 15.3423C16.8346 15.5192 16.9231 15.7385 16.9231 16C16.9231 16.2615 16.8346 16.4808 16.6577 16.6577C16.4808 16.8346 16.2615 16.9231 16 16.9231ZM16 12.9231C15.7385 12.9231 15.5192 12.8346 15.3423 12.6577C15.1654 12.4808 15.0769 12.2615 15.0769 12C15.0769 11.7385 15.1654 11.5192 15.3423 11.3423C15.5192 11.1654 15.7385 11.0769 16 11.0769C16.2615 11.0769 16.4808 11.1654 16.6577 11.3423C16.8346 11.5192 16.9231 11.7385 16.9231 12C16.9231 12.2615 16.8346 12.4808 16.6577 12.6577C16.4808 12.8346 16.2615 12.9231 16 12.9231ZM16 8.92307C15.7385 8.92307 15.5192 8.83461 15.3423 8.65768C15.1654 8.48076 15.0769 8.26153 15.0769 8C15.0769 7.73847 15.1654 7.51924 15.3423 7.34232C15.5192 7.16539 15.7385 7.07693 16 7.07693C16.2615 7.07693 16.4808 7.16539 16.6577 7.34232C16.8346 7.51924 16.9231 7.73847 16.9231 8C16.9231 8.26153 16.8346 8.48076 16.6577 8.65768C16.4808 8.83461 16.2615 8.92307 16 8.92307ZM16 4.92307C15.7385 4.92307 15.5192 4.83461 15.3423 4.65768C15.1654 4.48076 15.0769 4.26153 15.0769 4C15.0769 3.73847 15.1654 3.51924 15.3423 3.34232C15.5192 3.16539 15.7385 3.07693 16 3.07693C16.2615 3.07693 16.4808 3.16539 16.6577 3.34232C16.8346 3.51924 16.9231 3.73847 16.9231 4C16.9231 4.26153 16.8346 4.48076 16.6577 4.65768C16.4808 4.83461 16.2615 4.92307 16 4.92307ZM19 12.5C18.8667 12.5 18.75 12.45 18.65 12.35C18.55 12.25 18.5 12.1333 18.5 12C18.5 11.8667 18.55 11.75 18.65 11.65C18.75 11.55 18.8667 11.5 19 11.5C19.1333 11.5 19.25 11.55 19.35 11.65C19.45 11.75 19.5 11.8667 19.5 12C19.5 12.1333 19.45 12.25 19.35 12.35C19.25 12.45 19.1333 12.5 19 12.5ZM19 8.5C18.8667 8.5 18.75 8.45 18.65 8.35C18.55 8.25 18.5 8.13333 18.5 8C18.5 7.86667 18.55 7.75 18.65 7.65C18.75 7.55 18.8667 7.5 19 7.5C19.1333 7.5 19.25 7.55 19.35 7.65C19.45 7.75 19.5 7.86667 19.5 8C19.5 8.13333 19.45 8.25 19.35 8.35C19.25 8.45 19.1333 8.5 19 8.5Z" fill="currentColor"/>
</svg>
